<svg xmlns="http://www.w3.org/2000/svg" width="1392" height="679" viewBox="0 0 1392 679"><g><g><path fill="#6651ff" d="M435.324-100.159c21.506 10.502 35.625 31.787 36.898 55.626l2.305 43.142a332.551 332.551 0 0 1-10.18 101.235l-22.133 85.334a65.818 65.818 0 0 1-21.244 33.747l-.549.464a66.173 66.173 0 0 1-42.583 15.61 66.192 66.192 0 0 1-37.892-11.83l-2.697-1.874a65.832 65.832 0 0 1-27.017-41.228 171.568 171.568 0 0 0-19.986-52.862l-2.113-3.631a236.756 236.756 0 0 1-25.418-175.066 65.855 65.855 0 0 1 30.138-40.895l2.976-1.784c42.465-25.467 94.99-27.721 139.495-5.988"/></g><g><path fill="#fae667" d="M605 342.852c-11.181 34.98-45.353 57.49-81.937 53.741-43.964-4.505-93.956-18.15-93.956-57.88 0-46.944-7.107-151.835-7.107-182.128 0-3.724 1.32-8.228 3.423-13.043C436.769 117.568 462.717 101 491.098 101h44.018C578.35 101 605 154.22 605 229.318z"/></g><g><path fill="#6651ff" d="M301.194-142.23c15.614 7.622 25.865 23.068 26.79 40.369l1.672 31.309a241.237 241.237 0 0 1-7.39 73.467l-16.07 61.928a47.762 47.762 0 0 1-15.423 24.491l-.399.337A48.056 48.056 0 0 1 259.458 101a48.072 48.072 0 0 1-27.51-8.586l-1.959-1.36a47.773 47.773 0 0 1-19.615-29.92 124.477 124.477 0 0 0-14.51-38.362l-1.535-2.636a171.753 171.753 0 0 1-18.454-127.048 47.794 47.794 0 0 1 21.881-29.677l2.16-1.295c30.832-18.482 68.967-20.118 101.278-4.346"/></g><g><path fill="#f69" d="M98.494 88.132c14.725-40.543 60.911-31.53 67.365 0 4.973 24.301 11.227 86.58 3.528 100.742-7.699 14.162-17.682 33.614-37.852 46.026-24.059 14.806-97.839-2.897-82.441-49.566 15.397-46.67 36.334-61.227 49.4-97.202"/></g><g><path fill="#ff6e28" d="M331.68 330.933c-22.31-1.713-45.68-65.715-45.68-96.53 0-30.813 27.723-61.627 58.596-68.544 30.873-6.917 66.156 28.927 55.445 72.004-10.711 43.076-28.668 46.85-32.448 57.54-3.78 10.69-15.437 37.102-35.914 35.53"/></g><g><path fill="#2c8cff" d="M153.023 156.7l21.06-69.624s40.997 7.963 93.35 39.624c84.243 50.943 71.152 183.4-31.875 233.777C132.53 410.857-5.218 340.1-16.602 183.305-19.448 132.926-7.494 83.68 34.058 35l52.92 30.098c-32.395 46.932-44.011 72.096-36.413 123.3 11.133 75.032 84.812 137.55 147.994 108.682 59.699-27.277 58.63-114.341-45.536-140.38"/></g><g><path fill="#6651ff" d="M1017.404 248.408S980 381.705 980 403.922c0 22.216-.13 86.295 70.472 94.825 49.331 5.96 80.772-94.825 138.777-166.892 48.936-60.802 35.237-118.668-11.384-144.135-46.62-25.468-136.609-29.26-160.46 60.688"/></g><g><path fill="#f69" d="M913 661.784l62.726 35.55s76.337-104.873 224.868-106.058C1349.124 590.091 1448.54 708 1448.54 708l67.46-43.846s-124.86-150.496-315.406-148.126C1010.048 518.398 913 661.784 913 661.784"/></g><g><path fill="#f5a623" d="M1017.088 425.94c4.806 32.169-9.424 49.767-3.813 74.68 6.604 29.321 19.044 39.412 21.304 57.73 2.26 18.321-4.262 45.115-27.182 48.668-22.92 3.552-54.099-.407-92.321-48.205-41.792-52.26-41.724-101.423-36.969-142.41 4.756-40.986 50.102-52.424 83.156-45.525 33.054 6.9 50.624 20.247 55.825 55.063"/></g><g><path fill="#2a66ee" d="M856.088 501.94c4.806 32.169-9.424 49.767-3.813 74.68 6.604 29.321 19.044 39.412 21.304 57.73 2.26 18.321-4.262 45.115-27.182 48.668-22.92 3.552-54.099-.407-92.321-48.205-41.792-52.26-41.724-101.423-36.969-142.41 4.756-40.986 50.102-52.424 83.156-45.525 33.054 6.9 50.624 20.247 55.825 55.063"/></g><g><path fill="#ff6e28" d="M831.088 605.94c4.806 32.169-9.424 49.767-3.813 74.68 6.604 29.321 19.044 39.412 21.304 57.73 2.26 18.321-4.262 45.115-27.182 48.668-22.92 3.552-54.099-.407-92.321-48.205-41.792-52.26-41.724-101.423-36.969-142.41 4.756-40.986 50.102-52.424 83.156-45.525 33.054 6.9 50.624 20.247 55.825 55.063"/></g><g><path fill="#f69" d="M77.89 544.423c78.934-33.244 135.897 26.224 116.184 104.062-19.713 77.839-88.92 208.958-153.513 144.023S-8.093 580.636 77.89 544.423"/></g><g transform="rotate(96 229 219)"><path fill="#ff6e28" d="M429.43 270.253c78.934-33.244 135.897 26.224 116.184 104.062-19.713 77.839-88.92 208.958-153.513 144.023s-48.654-211.872 37.33-248.085"/></g><g transform="rotate(-27 -155 191)"><path fill="#fae667" d="M130.04 437.418c-7.638 23.872-30.979 39.233-55.968 36.674-30.03-3.074-64.178-12.385-64.178-39.5 0-32.035-4.854-103.616-4.854-124.29 0-2.54.901-5.614 2.338-8.9 7.75-17.725 25.474-29.032 44.86-29.032h30.067c29.531 0 47.735 36.319 47.735 87.568z"/></g><g><path fill="#6651ff" d="M163.127 492.75l2.37 19.102c1.532 12.345 7.5 23.696 16.775 31.902l3.989 3.53c14.696 13.003 35.614 16.47 53.44 8.372 5.565-2.527 10.79-6.129 15.038-11.102 16.988-19.894 44.7-123.575 4.658-149.204-36.988-23.675-76.432-20.028-91.226 25.827-9.728 30.155-5.044 71.573-5.044 71.573"/></g><g><path fill="#2c8cff" d="M252.215 505.547s-13.855 99.715-15.035 114.941c-1.179 15.226 2.948 33.437 26.532 31.347 23.583-2.09 55.988-21.736 72.224-40.9 30.894-36.468-7.978-138.773-54.242-137.93-25.512.465-29.48 32.542-29.48 32.542"/></g><g><path fill="#fae667" d="M1131 270.698l48.498-67.993c19.878 11.79 105.499 66.545 193.993 106.423 135.543 61.079 212.362-130.075 136.032-216.392-71.47-80.822-101.137-94.007-160.28-117.656L1397.148-87s102.762 53.291 166.787 126.524c61.51 70.357 71.564 156.678 34.303 239.45-37.26 82.774-142.537 152.54-248.997 104.058C1242.782 334.551 1131 270.698 1131 270.698"/></g><g><path fill="#2c8cff" d="M1044.426 172.806c73.324-31.068 126.24 24.508 107.927 97.251-18.312 72.744-82.601 195.28-142.603 134.596-60.003-60.685-45.197-198.004 34.676-231.847"/></g><g transform="rotate(-37 806 -168.5)"><path fill="#f5a623" d="M1133.238 72.512c-23.48 37.805-66.49 59.695-100.02 59.619-45-.102-82.526-16.081-98.165-47.719-23.254-47.046-6.485-138.497-6.485-166.13 0-3.396 1.204-7.505 3.123-11.897 10.355-23.692 34.034-38.805 59.934-38.805h40.17c39.453 0 133.523 63.949 133.523 132.45z"/></g><g><path fill="#f69" d="M1279.088 40.547s-17.382 124.226-18.862 143.195c-1.479 18.969 3.699 41.656 33.285 39.053 29.586-2.603 70.24-27.08 90.609-50.955 38.757-45.432-10.01-172.884-68.05-171.834-32.005.58-36.982 40.541-36.982 40.541"/></g></g></svg>