<svg xmlns="http://www.w3.org/2000/svg" width="1997" height="539" viewBox="0 0 1997 539"><g><g><path fill="#6651ff" d="M96.878 393.742L81.48 366C5.071 397.44-12.213 437.955 7.506 480.371c10.966 23.59 51.97 47.169 104.433 24.352 46.436-20.197 83.929-62.14 63.22-89.235-23.338-30.537-56.437-21.22-114.87 14.32l16.561 30.205c37.557-21.806 64.068-35.12 66.716-24.387 4.863 19.712-71.499 70.184-102.304 28.914-15.894-21.292 2.454-45.984 55.616-70.798"/></g><g transform="rotate(-37 400 -8924)"><path fill="#2c8cff" d="M400.84 410.676c-52.753.903-55.785 71.957 0 78.882v81.892s-137.877-9.252-128.547-137.892C280.176 324.869 400.84 319.45 400.84 319.45z"/></g><g><path fill="#fae667" d="M590 423.665l27.373-38.333c11.22 6.646 59.545 37.517 109.493 60 76.503 34.435 119.86-73.335 76.779-122-40.339-45.566-57.083-53-90.465-66.332l27.039-35s58 30.045 94.137 71.333c34.718 39.666 40.393 88.332 19.362 134.998-21.03 46.667-80.45 86-140.538 58.667C653.092 459.665 590 423.665 590 423.665"/></g><g><path fill="#f69" d="M498.862 275.648c55.294-23.453 95.197 18.5 81.388 73.41-13.81 54.912-62.29 147.41-107.537 101.602-45.248-45.808-34.083-149.466 26.15-175.012"/></g><g><path fill="#00825a" d="M619.785 77.252c13.038-26.1 78.267-26.028 96.87-16.096 18.605 9.932 23.417 35.617 24.7 53.768 1.283 18.15.962 47.553-3.85 69.128-4.811 21.576-26.812 69.002-57.336 77.447-18.388 5.088-25.42 6.85-42.742 0-17.321-6.849-28.868-16.095-31.755-36.643-2.887-20.548 3.849-127.056 14.113-147.604"/></g><g><path fill="#fae667" d="M445 255.17c-6.66 20.563-27.014 33.795-48.804 31.59-26.186-2.647-55.963-10.668-55.963-34.024 0-27.595-4.233-89.254-4.233-107.061 0-2.19.786-4.837 2.039-7.667C344.797 122.739 360.252 113 377.157 113h26.218C429.126 113 445 144.284 445 188.43z"/></g><g><path fill="#2c8cff" d="M465.127 163.501l2.37 18.889a50.228 50.228 0 0 0 16.775 31.545l3.989 3.49c14.696 12.859 35.614 16.287 53.44 8.28 5.565-2.499 10.79-6.06 15.038-10.978 16.988-19.672 44.7-122.195 4.658-147.538-36.988-23.41-76.432-19.804-91.226 25.539-9.728 29.818-5.044 70.773-5.044 70.773"/></g><g><path fill="#6651ff" d="M740.78 250.471S716 338.521 716 353.196c0 14.675-.086 57.002 46.688 62.637 32.681 3.937 53.511-62.637 91.94-110.24 32.42-40.163 23.344-78.387-7.543-95.21-30.886-16.822-90.503-19.327-106.305 40.088"/></g><g><path fill="#6651ff" d="M105.19 323.337l4.329 5.423a37.667 37.667 0 0 1 6.36 11.777l2.545 7.78c2.694 8.23 9.67 14.365 18.223 16.026 18.88 3.668 37.23-8.393 41.203-27.084l17.942-84.387c7.362-34.626-19.89-66.95-55.514-65.844-33.422 1.037-58.18 31.21-52.451 63.921l9.705 55.412a37.622 37.622 0 0 0 7.658 16.976"/></g><g><path fill="#f69" d="M247.225 78.465c13.79-38.052 57.044-29.592 63.087 0 4.658 22.808 10.515 81.26 3.305 94.551-7.21 13.292-16.56 31.548-35.45 43.197-22.53 13.896-91.626-2.718-77.206-46.52 14.42-43.801 34.028-57.464 46.264-91.228"/></g><g><path fill="#00825a" d="M258.405 460.925C233.787 459.016 208 387.688 208 353.348s30.59-68.682 64.657-76.39c34.067-7.71 73 32.238 61.181 80.244-11.819 48.007-31.633 52.212-35.805 64.126-4.171 11.914-17.033 41.35-39.628 39.597"/></g><g><path fill="#fae667" d="M782 149.759L820.024 56s119.561 11.377 144.65 107.882C989.761 260.387 932.136 331 932.136 331l-108.585-70.613s19.6-18.83 13.328-57.668c-6.272-38.837-54.88-52.96-54.88-52.96"/></g><g clip-path="url(#clip-4583C56D-9D58-4CEC-A715-B892ED4470E1)"><path fill="#2c8cff" d="M97.489 60.11L107.83 25.72s20.132 3.933 45.84 19.571c41.366 25.162 34.938 90.584-15.653 115.467C87.427 185.64 19.786 150.694 14.196 73.25 12.798 48.367 18.668 24.044 39.07 0l25.987 14.866c-15.907 23.18-21.612 35.61-17.88 60.9 5.466 37.06 41.646 67.938 72.671 53.68 29.315-13.473 28.79-56.476-22.36-69.336"/></g><g><path fill="#f69" d="M855.101 366.256c-21.446 2.05-35.701 18.937-32.131 34.305 3.57 15.369-4.265 32.133-8.239 40.617-12.083 25.797-4.943 73.55 20.323 90.015 25.265 16.467 71.677 4.666 82.113-14.82 10.435-19.484 9.673-79.736-7.555-115.96-11.789-24.79-31.884-36.32-54.51-34.157"/></g><g><path fill="#6651ff" d="M919.245 321.701c13.13-22.654 45.604-30.166 73.768-25.275 23.418 4.068 39.225 25.275 43.03 53.745 3.287 24.59.497 129.031-47.714 121.435-35.493-5.593-21.077-34.862-43.616-62.17-22.54-27.308-44.495-54.907-25.468-87.735"/></g><g><path fill="#6651ff" d="M1879.245 321.701c13.13-22.654 45.604-30.166 73.768-25.275 23.418 4.068 39.225 25.275 43.03 53.745 3.287 24.59.497 129.031-47.714 121.435-35.493-5.593-21.077-34.862-43.616-62.17-22.54-27.308-44.495-54.907-25.468-87.735"/></g><g><path fill="#2c8cff" d="M595.598 368.093s-15.115 107.514-16.401 123.93c-1.286 16.417 3.216 36.053 28.943 33.8 25.727-2.254 61.078-23.437 78.79-44.1 33.703-39.32-8.703-149.627-59.173-148.717-27.831.5-32.159 35.087-32.159 35.087"/></g><g><path fill="#6651ff" d="M1209.217 435.74l-18.63-33.74c-92.451 38.239-113.364 87.512-89.506 139.1 13.269 28.69 62.882 57.367 126.359 29.617 56.185-24.564 101.55-75.575 76.493-108.528-28.238-37.14-68.285-25.81-138.986 17.416l20.037 36.735c45.442-26.52 77.52-42.712 80.723-29.66 5.884 23.974-86.51 85.359-123.783 35.166-19.23-25.896 2.97-55.927 67.293-86.106"/></g><g><path fill="#2c8cff" d="M1366 349.086c-59.296 1.01-62.704 80.523 0 88.272V529s-154.978-10.353-144.49-154.308C1230.37 253.065 1366 247 1366 247z"/></g><g><path fill="#f69" d="M1456.862 269.58c55.294-23.212 95.197 18.308 81.388 72.653-13.81 54.346-62.29 145.89-107.537 100.554-45.248-45.336-34.083-147.925 26.15-173.208"/></g><g><path fill="#fae667" d="M1490 229.145c-7.393 23.163-29.988 38.069-54.177 35.586-29.069-2.984-62.124-12.018-62.124-38.327 0-31.084-4.699-100.539-4.699-120.598 0-2.466.872-5.448 2.263-8.636 7.502-17.2 24.659-28.17 43.425-28.17h29.105c28.586 0 46.207 35.24 46.207 84.967z"/></g><g><path fill="#2c8cff" d="M1551.223 194.49l2.57 20.596a54.855 54.855 0 0 0 18.197 34.397l4.327 3.806c15.942 14.02 38.632 17.758 57.97 9.027 6.036-2.724 11.704-6.608 16.31-11.97 18.43-21.45 48.488-133.24 5.054-160.874-40.122-25.526-82.91-21.594-98.957 27.847-10.552 32.514-5.471 77.17-5.471 77.17"/></g><g><path fill="#6651ff" d="M1793.507 198.695S1772 274.923 1772 287.628c0 12.705-.075 49.35 40.521 54.228 28.366 3.408 46.444-54.228 79.797-95.44 28.139-34.77 20.261-67.862-6.546-82.426-26.807-14.565-78.55-16.733-92.265 34.705"/></g><g><path fill="#f69" d="M1220.937 93.044c17.998-49.377 74.447-38.4 82.335 0 6.078 29.596 13.722 105.444 4.312 122.691s-21.611 40.937-46.264 56.054c-29.405 18.031-119.58-3.528-100.761-60.366 18.82-56.837 44.41-74.567 60.378-118.379"/></g><g><path fill="#00825a" d="M1124.98 497.923c-25.387-1.971-51.98-75.612-51.98-111.067 0-35.454 31.546-70.908 66.678-78.868 35.131-7.959 75.281 33.284 63.093 82.848-12.189 49.564-32.622 53.905-36.924 66.206-4.302 12.3-17.566 42.69-40.867 40.88"/></g><g><path fill="#fae667" d="M1805 134.622L1840.61 47s111.97 10.632 135.465 100.82c23.495 90.189-30.47 156.18-30.47 156.18l-101.69-65.991s18.355-17.598 12.48-53.893c-5.873-36.296-51.395-49.494-51.395-49.494"/></g><g><path fill="#f69" d="M1791.317 365.298c-24.803 2.382-41.29 22.001-37.16 39.857 4.129 17.856-4.933 37.333-9.529 47.19-13.975 29.973-5.717 85.453 23.504 104.585 29.22 19.131 82.896 5.42 94.965-17.218 12.07-22.64 11.187-92.643-8.737-134.73-13.634-28.8-36.874-42.197-63.043-39.684"/></g><g><path fill="#6651ff" d="M1904.404 481.773c15.232 26.494 52.9 35.28 85.57 29.559 27.166-4.757 45.502-29.559 49.917-62.854 3.812-28.757.576-150.901-55.35-142.017-41.171 6.54-24.448 40.77-50.594 72.707-26.147 31.937-51.614 64.213-29.543 102.605"/><path fill="none" stroke="#2a66ee" stroke-miterlimit="50" d="M1904.404 481.773c15.232 26.494 52.9 35.28 85.57 29.559 27.166-4.757 45.502-29.559 49.917-62.854 3.812-28.757.576-150.901-55.35-142.017-41.171 6.54-24.448 40.77-50.594 72.707-26.147 31.937-51.614 64.213-29.543 102.605"/></g><g><path fill="#2c8cff" d="M1507.534 364.093s-16.878 119.77-18.314 138.057c-1.437 18.289 3.59 40.162 32.32 37.652 28.729-2.51 68.204-26.107 87.982-49.126 37.634-43.803-9.719-166.683-66.077-165.67-31.078.559-35.91 39.087-35.91 39.087"/></g><g><path fill="#00825a" d="M1714.172 316.881c3.173 21.4-6.224 33.108-2.519 49.682 4.361 19.507 12.576 26.22 14.069 38.407 1.493 12.188-2.814 30.013-17.95 32.377-15.136 2.363-35.726-.271-60.967-32.07-27.599-34.767-27.554-67.473-24.413-94.74 3.14-27.268 33.086-34.878 54.914-30.288 21.828 4.59 33.43 13.47 36.866 36.632"/></g><g><path d="M1116.574 214.318a.83.83 0 0 1 .392.829.858.858 0 0 1-.609.688l-5.303 1.447 3.927 5.996c.13.183.174.422.116.646a.85.85 0 0 1-.406.534l-4.303 2.416a.95.95 0 0 1-.435.112c-.29 0-.579-.14-.739-.393l-4.216-6.404-4.607 3.342a.891.891 0 0 1-.913.084.862.862 0 0 1-.478-.758v-18.005c0-.31.174-.59.449-.744a.867.867 0 0 1 .884.028zm-2.55.407l-13.3-8.328v14.775l3.97-2.88a.886.886 0 0 1 .681-.154.866.866 0 0 1 .58.38l4.245 6.488 2.796-1.573-4.057-6.208a.826.826 0 0 1-.072-.758.895.895 0 0 1 .58-.506z"/></g></g></svg>