<svg xmlns="http://www.w3.org/2000/svg" width="316" height="399" viewBox="0 0 316 399"><g><g><path fill="#f5a623" d="M88.957 88.993c91.32-38.783 157.223 30.593 134.415 121.4-22.806 90.806-102.874 243.77-177.603 168.016-74.729-75.753-56.29-247.17 43.188-289.416"/></g><g transform="rotate(24 -255 -1350.5)"><path fill="#2a66ee" d="M177.574 146.493c-10.715-75.937-34.582-108.31-67.283-96.585-63.382 22.726-29.445 137.471-2.937 138.93 14.433.793 7.916-37.435-5.001-92.716l44.1-9.152c22.115 86.627 21.118 131.56-25.989 149.057-41.797 15.524-79.92-47.376-87.432-113.14C24.546 48.588 69.702 6.35 103.392 1.662c60.58-8.43 104.64 28.664 114.759 136.191z"/></g><g><path fill="#2a66ee" d="M313.65 89s18.14 94.872-56.358 171.155C182.793 336.437 74 326.515 74 326.515l9.411-43.952s85.866 7.144 144.199-52.057c58.333-59.201 47.185-130.709 47.185-130.709z"/></g></g></svg>