<svg xmlns="http://www.w3.org/2000/svg" width="497" height="335" viewBox="0 0 497 335"><g><g><path fill="#f69" d="M237.084 40.6c70.92-30.342 122.1 23.936 104.388 94.981-17.712 71.045-79.892 190.721-137.927 131.454-58.036-59.268-43.715-193.381 33.54-226.434"/></g><g><path fill="#2c8cff" d="M409.262 117.036c-66.762 29.706-31.933 122.504 42.956 101.2l44.596 105.061S316 386.041 257.84 215.955C208.701 72.251 359.583 0 359.583 0z"/></g><g><path fill="#f5a623" d="M125.775 115.115L105.784 79c-99.2 40.93-121.64 93.673-96.04 148.892 14.237 30.71 67.473 61.405 135.584 31.701C205.615 233.3 254.29 178.7 227.406 143.425c-30.3-39.753-73.27-27.625-149.133 18.643l21.5 39.32c48.759-28.387 83.179-45.718 86.616-31.747 6.313 25.661-92.826 91.368-132.82 37.642-20.634-27.72 3.186-59.864 72.206-92.168"/></g></g></svg>