<svg xmlns="http://www.w3.org/2000/svg" width="348" height="335" viewBox="0 0 348 335"><g><g><path fill="#fae667" d="M0 114.215L44.462 0s139.804 13.859 169.14 131.42C242.938 248.98 175.557 335 175.557 335l-126.97-86.02s22.92-22.939 15.585-70.25C56.838 131.42 0 114.215 0 114.215"/></g><g transform="rotate(22 -712 -6698.5)"><path fill="#4c3ad6" d="M151.458 75.324c20.169-35.07 70.048-46.698 113.307-39.126 35.97 6.296 60.25 39.126 66.096 83.198 5.048 38.065.763 199.743-73.29 187.984-54.517-8.658-32.374-53.967-66.995-96.24-34.621-42.274-68.343-84.998-39.118-135.816"/></g><g><path fill="#f69" d="M187.216 289c-13.229 0-26.342-3.246-38.45-9.58-15.784-8.256-29.207-21.205-39.894-38.486-11.101-17.95-16.777-35.458-16.87-52.04-.098-17.25 6.155-32.686 17.606-43.465 11.536-10.859 27.558-16.298 45.12-15.329 16.609.921 34.1 7.537 50.583 19.132l-24.896 35.341c-6.872-4.834-17.323-10.722-28.083-11.319-5.609-.31-10.249.98-13.07 3.636-6.026 5.673-6.385 20.65 6.4 41.321 12.168 19.674 29.168 29.598 46.642 27.223 9.158-1.243 18.038-5.812 25.68-13.21 8.905-8.622 15.846-20.845 20.073-35.347 7.016-24.074 3.936-45.025-9.157-62.272-9.12-12.016-22.981-22.091-40.083-29.136-16.49-6.794-35.447-10.419-53.392-10.242l-.458-43.218c23.964-.243 48.28 4.416 70.334 13.501 24.211 9.975 44.287 24.834 58.057 42.974 21.512 28.34 27.123 63.084 16.223 100.479-6.322 21.692-17.215 40.47-31.503 54.302-14.314 13.859-31.586 22.502-49.95 24.996a81.082 81.082 0 0 1-10.912.739"/></g></g></svg>