<?xml version="1.0" encoding="UTF-8" standalone="no"?>
<!DOCTYPE svg PUBLIC "-//W3C//DTD SVG 1.1//EN" "http://www.w3.org/Graphics/SVG/1.1/DTD/svg11.dtd">
<svg width="100%" height="100%" viewBox="0 0 348 335" version="1.1" xmlns="http://www.w3.org/2000/svg" xmlns:xlink="http://www.w3.org/1999/xlink" xml:space="preserve" xmlns:serif="http://www.serif.com/" style="fill-rule:evenodd;clip-rule:evenodd;stroke-linejoin:round;stroke-miterlimit:1.41421;">
    <g>
        <path d="M0,114.215L44.462,0C44.462,0 184.266,13.859 213.602,131.42C242.938,248.98 175.557,335 175.557,335L48.587,248.98C48.587,248.98 71.507,226.041 64.172,178.73C56.838,131.42 0,114.215 0,114.215" style="fill:rgb(250,230,103);fill-rule:nonzero;"/>
        <g transform="matrix(0.927184,0.374607,-0.374607,0.927184,77.1908,-94.8966)">
            <path d="M151.458,75.324C171.627,40.254 221.506,28.626 264.765,36.198C300.735,42.494 325.015,75.324 330.861,119.396C335.909,157.461 331.624,319.139 257.571,307.38C203.054,298.722 225.197,253.413 190.576,211.14C155.955,168.866 122.233,126.142 151.458,75.324" style="fill:rgb(76,58,214);fill-rule:nonzero;"/>
        </g>
        <path d="M187.216,289C173.987,289 160.874,285.754 148.766,279.42C132.982,271.164 119.559,258.215 108.872,240.934C97.771,222.984 92.095,205.476 92.002,188.894C91.904,171.644 98.157,156.208 109.608,145.429C121.144,134.57 137.166,129.131 154.728,130.1C171.337,131.021 188.828,137.637 205.311,149.232L180.415,184.573C173.543,179.739 163.092,173.851 152.332,173.254C146.723,172.944 142.083,174.234 139.262,176.89C133.236,182.563 132.877,197.54 145.662,218.211C157.83,237.885 174.83,247.809 192.304,245.434C201.462,244.191 210.342,239.622 217.984,232.224C226.889,223.602 233.83,211.379 238.057,196.877C245.073,172.803 241.993,151.852 228.9,134.605C219.78,122.589 205.919,112.514 188.817,105.469C172.327,98.675 153.37,95.05 135.425,95.227L134.967,52.009C158.931,51.766 183.247,56.425 205.301,65.51C229.512,75.485 249.588,90.344 263.358,108.484C284.87,136.824 290.481,171.568 279.581,208.963C273.259,230.655 262.366,249.433 248.078,263.265C233.764,277.124 216.492,285.767 198.128,288.261C194.511,288.753 190.866,289 187.216,289" style="fill:rgb(255,102,153);fill-rule:nonzero;"/>
    </g>
</svg>
